Coordinates
version=1
nRows=13
nColumns=36
inDegrees=yes

Units are S.I. units (second, meters, Newtons, ...)
If the header above contains a line with 'inDegrees', this indicates whether rotational values are in degrees (yes) or radians (no).

endheader
time	pelvis_tilt	pelvis_list	pelvis_rotation	pelvis_tx	pelvis_ty	pelvis_tz	hip_flexion_r	hip_adduction_r	hip_rotation_r	knee_angle_r	knee_angle_r_beta	ankle_angle_r	subtalar_angle_r	mtp_angle_r	hip_flexion_l	hip_adduction_l	hip_rotation_l	knee_angle_l	knee_angle_l_beta	ankle_angle_l	subtalar_angle_l	mtp_angle_l	lumbar_extension	lumbar_bending	lumbar_rotation	arm_flex_r	arm_add_r	arm_rot_r	elbow_flex_r	pro_sup_r	arm_flex_l	arm_add_l	arm_rot_l	elbow_flex_l	pro_sup_l
      2.38333330	     -6.60099795	      1.47674096	      6.37692432	     -0.35405216	      1.35281217	     -0.03970521	      2.41208059	     -0.19960093	     -0.54402709	      0.41134500	      0.00717932	     13.88681185	     -0.06457422	     -7.49999987	      3.62151540	      0.87407405	      3.56852427	      0.87793945	      0.01532293	      7.16265430	     -3.04267626	     -7.49999987	      0.96619014	     -1.50061446	      0.42971367	    -18.39743869	    -18.37561619	     17.08358233	     70.76477606	     83.34483743	    -26.98475656	    -14.96633536	     10.43487345	     77.78661171	     89.00465142
      2.40000000	     -6.59363983	      1.52676953	      6.49642383	     -0.35400224	      1.35202266	     -0.03993557	      2.44460083	     -0.27784895	     -0.61141002	      0.40558473	      0.00707879	     14.02318174	      0.27163540	     -7.49999987	      3.66463942	      0.92845393	      3.69166174	      0.97502721	      0.01701744	      7.07535964	     -3.19249847	     -7.49999987	      0.92464833	     -1.52216468	      0.55804438	    -18.87341929	    -18.18289094	     16.10692741	     70.99283180	     87.62274806	    -26.85372781	    -14.87059571	      9.84261616	     77.94265208	     94.71668141
      2.41666670	     -6.54965749	      1.58344455	      6.58213158	     -0.35413865	      1.35224378	     -0.03986703	      2.45705596	     -0.33129159	     -0.45132231	      0.39798016	      0.00694606	     13.95971090	      0.07541045	     -7.49999987	      3.63775507	      0.99812239	      3.67989857	      1.04816429	      0.01829392	      7.12316891	     -3.19289027	     -7.49999987	      1.03125570	     -1.58161045	      0.51889264	    -18.69849668	    -18.25590973	     16.14691239	     71.10456962	     86.42946727	    -26.93254932	    -15.06021534	     10.17528292	     77.96745854	     93.23640197
      2.43333330	     -6.49568883	      1.67552623	      6.61261629	     -0.35399317	      1.35462214	     -0.03964388	      2.51097678	     -0.40855784	     -0.30232507	      0.38753800	      0.00676381	     13.93558564	      0.19405494	     -7.49999987	      3.65142592	      1.08891560	      3.54526808	      1.08374131	      0.01891485	      7.10625593	     -2.92517566	     -7.49999987	      1.06123583	     -1.68921352	      0.54613385	    -18.56245169	    -18.27129561	     16.25059585	     71.01191047	     84.56402195	    -26.69464740	    -15.32516085	     10.80779021	     77.65216900	     90.66637466
      2.45000000	     -6.42611524	      1.69383449	      6.81256783	     -0.35424144	      1.35208067	     -0.03994366	      2.45813453	     -0.45581250	     -0.55338986	      0.39378960	      0.00687293	     14.03597405	      0.45388830	     -7.49999987	      3.67558868	      1.14769283	      3.73595285	      1.21798044	      0.02125777	      7.10313070	     -3.03195075	     -7.49999987	      1.06449700	     -1.65909114	      0.80364903	    -19.04555452	    -18.07450897	     15.05576390	     71.38806731	     88.95751187	    -26.53824359	    -15.55747143	     11.28670499	     77.46439596	     95.47494985
      2.46666670	     -6.40018400	      1.79542098	      6.93353454	     -0.35403004	      1.35183076	     -0.04005600	      2.49827839	     -0.57217929	     -0.51862917	      0.39826512	      0.00695104	     14.22859779	      0.69952955	     -7.49999987	      3.73468821	      1.30020288	      3.85721558	      1.33965164	      0.02338133	      7.20466436	     -2.95251584	     -7.49999987	      1.17043249	     -1.78762726	      0.78917943	    -18.98776737	    -18.09274896	     15.23090921	     71.33789831	     86.87438302	    -26.65947147	    -15.69575626	     11.81434533	     77.34339638	     92.82568055
      2.48333330	     -6.22842972	      1.88572352	      6.83796241	     -0.35408039	      1.35228989	     -0.03991184	      2.43432802	     -0.69556905	     -0.31488515	      0.43670335	      0.00762191	     14.24144858	      0.68052750	     -7.49999987	      3.70913984	      1.34100402	      3.63238433	      1.63491622	      0.02853467	      7.34653192	     -2.96348990	     -7.49999987	      1.03230035	     -1.87957141	      0.83973104	    -19.11454281	    -18.13357218	     15.38756334	     71.61441626	     85.49555011	    -26.57609555	    -15.83627933	     12.08262165	     77.47788551	     91.12326009
      2.50000000	     -6.28818721	      1.93483305	      6.86535517	     -0.35361456	      1.35487509	     -0.03987985	      2.60921772	     -0.75203416	     -0.19366099	      0.43690280	      0.00762539	     14.15504488	      0.75355226	     -7.49999987	      3.84465455	      1.40515352	      3.76590981	      1.73978539	      0.03036498	      7.27536927	     -3.09279117	     -7.49999987	      1.08466340	     -1.91821419	      0.95166189	    -19.50469141	    -17.85025701	     14.67687182	     71.79071356	     89.01179484	    -26.15504976	    -16.08875167	     12.28464171	     77.22655890	     95.33343784
      2.51666670	     -6.20977815	      1.99718860	      6.81152096	     -0.35388334	      1.35244562	     -0.03990142	      2.59604988	     -0.87071432	     -0.26971948	      0.45000792	      0.00785412	     14.16874180	      0.94798203	     -7.49999987	      3.81963190	      1.46869466	      3.61848416	      1.85447734	      0.03236674	      7.32408447	     -3.01483364	     -7.49999987	      0.90882678	     -1.97193171	      0.86600176	    -19.49511606	    -17.82742677	     14.68564655	     71.94421317	     89.24589633	    -25.89051319	    -16.21458219	     12.57249399	     77.18820845	     95.42737102
      2.53333330	     -6.11031601	      2.04073648	      6.78423242	     -0.35348571	      1.35540766	     -0.03982999	      2.49926341	     -0.94064305	     -0.28547009	      0.45145127	      0.00787931	     14.20102374	      1.00507944	     -7.49999987	      3.69933950	      1.50630690	      3.49395293	      1.86915505	      0.03262291	      7.41447745	     -2.76041626	     -7.49999987	      0.78057168	     -2.03806701	      0.99111642	    -19.35452971	    -17.71980225	     14.94093427	     71.58018025	     87.47284635	    -25.67796986	    -16.16782232	     12.76740215	     77.00779227	     93.12745213
      2.55000000	     -6.18614332	      2.01971308	      6.76509902	     -0.35387254	      1.35219810	     -0.03988652	      2.56164095	     -0.94484923	     -0.33701781	      0.46439438	      0.00810521	     14.31166300	      0.95750428	     -7.49999987	      3.74514012	      1.53250751	      3.51236277	      1.82998540	      0.03193927	      7.52094416	     -2.78271827	     -7.49999987	      0.86857068	     -2.02570933	      1.06736375	    -19.20401935	    -17.75918577	     14.88460887	     71.63219901	     87.39568346	    -25.64221032	    -16.14645838	     12.74111556	     77.04609811	     93.04355742
      2.56666670	     -6.01156155	      2.06626798	      6.92709744	     -0.35367488	      1.35546782	     -0.03972133	      2.33273294	     -0.98201064	     -0.47636356	      0.44085294	      0.00769434	     14.40309776	      1.07683614	     -7.49999987	      3.49356608	      1.56251098	      3.57300234	      1.69345926	      0.02955644	      7.49972795	     -2.78175753	     -7.49999987	      0.67436380	     -2.09718425	      1.12526353	    -19.02914797	    -17.62723915	     14.81151380	     71.32733434	     86.36588219	    -25.66427297	    -16.11673342	     12.85968513	     76.93303040	     91.68813607
      2.58333330	     -5.93896878	      2.08300919	      7.12580252	     -0.35433114	      1.35249283	     -0.03987743	      2.16873266	     -1.02449449	     -0.87529791	      0.43041896	      0.00751223	     14.55905264	      1.34479136	     -7.49999987	      3.39547007	      1.57906555	      3.60460272	      1.64617271	      0.02873113	      7.54907221	     -2.76701076	     -7.49999987	      0.62840475	     -2.08226468	      1.20740350	    -19.34546299	    -17.54260795	     14.06351047	     71.71109674	     89.39407577	    -25.54294743	    -16.26445178	     12.66272015	     77.20631705	     95.44052176
